<?xml version="1.0" encoding="utf-8"?>
<!-- Generator: Adobe Illustrator 16.0.0, SVG Export Plug-In . SVG Version: 6.00 Build 0)  -->
<!DOCTYPE svg PUBLIC "-//W3C//DTD SVG 1.1//EN" "http://www.w3.org/Graphics/SVG/1.1/DTD/svg11.dtd">
<svg version="1.1" id="Layer_1" xmlns="http://www.w3.org/2000/svg" xmlns:xlink="http://www.w3.org/1999/xlink" x="0px" y="0px"
	 width="283.46px" height="283.46px" viewBox="0 0 283.46 283.46" enable-background="new 0 0 283.46 283.46" xml:space="preserve">
<g>
	<path fill="#EEEEEE" stroke="#000000" stroke-miterlimit="10" d="M98.601,74.185c12.72-7.744,26.719-11.608,40.616-11.926
		c-0.004,0-0.01,0.002-0.014,0.002l-1.455-60.766c-19.126,0.415-45.205,5.128-71.103,20.991c0.024-0.015,0.048-0.028,0.077-0.045
		L98.601,74.185z"/>
</g>
<path fill="#EEEEEE" stroke="#000000" stroke-miterlimit="10" d="M139.714,62.295c14.887-0.345,28.941,3.31,41.134,9.986
	c-0.004-0.002-0.008-0.004-0.013-0.006l29.135-53.344C193.2,9.724,168.258,0.762,137.899,1.544c0.03-0.001,0.059,0,0.089-0.001
	L139.714,62.295z"/>
<g>
	<path fill="#EEEEEE" stroke="#000000" stroke-miterlimit="10" d="M69.392,105.107c6.992-13.148,17.065-23.609,28.857-30.966
		c-0.004,0-0.006,0.004-0.009,0.007L66.006,22.616c-16.243,10.11-36.274,27.463-50.464,54.312c0.012-0.026,0.028-0.052,0.042-0.079
		L69.392,105.107z"/>
</g>
<g>
	<path fill="#EEEEEE" stroke="#000000" stroke-miterlimit="10" d="M74.653,186.135c-8.305-12.357-12.791-26.167-13.727-40.04
		c-0.001,0.004,0.002,0.008,0.002,0.013l-60.642,4.167c1.27,19.085,7.143,44.93,24.145,70.091c-0.018-0.021-0.034-0.047-0.051-0.073
		L74.653,186.135z"/>
</g>
<path fill="#EEEEEE" stroke="#000000" stroke-miterlimit="10" d="M61.197,145.853c-0.852-14.868,2.325-29.04,8.584-41.453
	c0,0.004-0.003,0.008-0.003,0.013L15.474,77.106C6.841,94.179-1.269,119.411,0.542,149.726c-0.001-0.034-0.002-0.059-0.003-0.087
	L61.197,145.853z"/>
<g>
	<path fill="#EEEEEE" stroke="#000000" stroke-miterlimit="10" d="M106.877,214.466c-13.381-6.535-24.185-16.241-31.948-27.771
		c0.003,0.008,0.005,0.012,0.009,0.009l-50.389,33.998C35.213,236.581,53.244,256,80.567,269.26c-0.027-0.012-0.057-0.027-0.08-0.04
		L106.877,214.466z"/>
</g>
<g>
	<path fill="#EEEEEE" stroke="#000000" stroke-miterlimit="10" d="M148.398,222.104c-14.848,1.128-29.074-1.781-41.603-7.807
		c0.005,0.001,0.009,0.001,0.014,0.004l-26.285,54.808c17.233,8.31,42.612,15.946,72.891,13.567
		c-0.033,0.003-0.062,0.004-0.093,0.007L148.398,222.104z"/>
</g>
<g>
	<path fill="#EEEEEE" stroke="#000000" stroke-miterlimit="10" d="M188.088,208.02c-12.184,8.562-25.9,13.331-39.746,14.557
		c0.005,0,0.009-0.003,0.014-0.003l5.427,60.544c19.055-1.664,44.772-8.077,69.573-25.601c-0.016,0.023-0.046,0.035-0.07,0.053
		L188.088,208.02z"/>
</g>
<path fill="#EEEEEE" stroke="#000000" stroke-miterlimit="10" d="M215.467,175.435c-6.247,13.516-15.715,24.526-27.074,32.536
	c0.002-0.004,0.006-0.003,0.01-0.007l35.077,49.64c15.647-11.004,34.67-29.46,47.336-57.067c-0.019,0.034-0.028,0.056-0.043,0.082
	L215.467,175.435z"/>
<path fill="#EEEEEE" stroke="#000000" stroke-miterlimit="10" d="M221.754,133.746c1.564,14.806-0.924,29.114-6.58,41.812
	c-0.002-0.004,0.004-0.004,0.004-0.009l55.559,24.659c7.8-17.474,14.684-43.071,11.411-73.263c0.002,0.036,0.007,0.062,0.007,0.089
	L221.754,133.746z"/>
<path fill="#EEEEEE" stroke="#000000" stroke-miterlimit="10" d="M209.256,97.559c8.876,11.952,10.699,22.814,12.294,36.621
	c-0.004,0,0.001-0.004,0-0.008l60.374-7.031c-2.175-19.009-9.267-44.549-27.447-68.879c0.023,0.03,4.951,7.606,4.966,7.629
	L209.256,97.559z"/>
<path fill="#EEEEEE" stroke="#000000" stroke-miterlimit="10" d="M181.562,72.325c13.005,7.248,20.567,13.3,27.694,25.233
	c-0.004,0.001,0.001,0.002,0,0l50.187-31.669c3.466,5.82-15.818-28.67-48.662-46.854c0.032,0.018,0.053,0.031,0.074,0.046
	L181.562,72.325z"/>
</svg>
